<svg width="24" height="24" viewBox="0 0 24 24" fill="none" xmlns="http://www.w3.org/2000/svg">
  <circle cx="12" cy="12" r="8" stroke="#081517" strokeWidth="2" />
  <path
    d="M15.9791 11.0203C16.1457 9.96957 15.298 9.40463 14.1398 9.02767L14.5156 7.60404L13.5984 7.38849L13.2321 8.77453C12.9912 8.71738 12.7438 8.66424 12.497 8.61111L12.8659 7.21605L11.9487 7L11.5728 8.42313C11.3733 8.38002 11.1769 8.33791 10.9868 8.2928L10.9879 8.28829L9.72246 7.99002L9.47829 8.91538C9.47829 8.91538 10.1593 9.06276 10.145 9.07178C10.5165 9.15951 10.5834 9.3916 10.5723 9.57607L10.1444 11.1977C10.1699 11.2037 10.2028 11.2127 10.24 11.2263L10.1429 11.2037L9.54305 13.4755C9.4974 13.5818 9.38222 13.7417 9.12212 13.681C9.13168 13.6936 8.45543 13.5241 8.45543 13.5241L8 14.5157L9.19431 14.7969C9.41619 14.8495 9.63382 14.9047 9.84773 14.9563L9.46821 16.396L10.3849 16.6115L10.7607 15.1879C11.0113 15.2515 11.2544 15.3107 11.4922 15.3668L11.1174 16.7845L12.0346 17L12.4142 15.5633C13.979 15.8431 15.1552 15.7303 15.6505 14.3939C16.0496 13.3181 15.6308 12.697 14.8076 12.2925C15.4074 12.1622 15.8586 11.7897 15.9791 11.0203ZM13.8824 13.7963C13.5995 14.8726 11.6806 14.2906 11.0585 14.1447L11.5628 12.2374C12.1849 12.3842 14.1791 12.6745 13.8824 13.7963ZM14.1664 11.0047C13.9079 11.9837 12.3112 11.4859 11.7937 11.3641L12.2502 9.63472C12.7677 9.75653 14.436 9.98361 14.1664 11.0047Z"
    fill="#081517"
  />
</svg>
