<svg width="24" height="24" viewBox="0 0 24 24" fill="none" xmlns="http://www.w3.org/2000/svg">
  <path
    fillRule="evenodd"
    clipRule="evenodd"
    d="M10.7368 19.1111C10.7368 18.6202 10.3598 18.2222 9.89474 18.2222H5.68421V5.77778H9.89474C10.3598 5.77778 10.7368 5.37981 10.7368 4.88889C10.7368 4.39797 10.3598 4 9.89474 4H5.68421C4.75405 4 4 4.79594 4 5.77778V18.2222C4 19.2041 4.75405 20 5.68421 20H9.89474C10.3598 20 10.7368 19.602 10.7368 19.1111Z"
    fill="#323232"
  />
  <path
    d="M19.7588 12.6227C19.8368 12.5388 19.8959 12.4427 19.9361 12.3403C19.977 12.2362 19.9997 12.1222 20 12.0027L20 12L20 11.9973C19.9994 11.7707 19.9171 11.5443 19.7534 11.3715L16.3849 7.81591C16.0561 7.46877 15.5229 7.46877 15.194 7.81591C14.8652 8.16304 14.8652 8.72585 15.194 9.07298L17.1249 11.1111H9.05263C8.58755 11.1111 8.21053 11.5091 8.21053 12C8.21053 12.4909 8.58755 12.8889 9.05263 12.8889H17.1249L15.194 14.927C14.8652 15.2741 14.8652 15.837 15.194 16.1841C15.5229 16.5312 16.0561 16.5312 16.3849 16.1841L19.7528 12.6292L19.7588 12.6227Z"
    fill="#323232"
  />
  <path
    fillRule="evenodd"
    clipRule="evenodd"
    d="M10.7368 19.1111C10.7368 18.6202 10.3598 18.2222 9.89474 18.2222H5.68421V5.77778H9.89474C10.3598 5.77778 10.7368 5.37981 10.7368 4.88889C10.7368 4.39797 10.3598 4 9.89474 4H5.68421C4.75405 4 4 4.79594 4 5.77778V18.2222C4 19.2041 4.75405 20 5.68421 20H9.89474C10.3598 20 10.7368 19.602 10.7368 19.1111Z"
    stroke="#323232"
    strokeMiterlimit="10"
    strokeLinecap="round"
    strokeLinejoin="round"
  />
  <path
    d="M19.7588 12.6227C19.8368 12.5388 19.8959 12.4427 19.9361 12.3403C19.977 12.2362 19.9997 12.1222 20 12.0027L20 12L20 11.9973C19.9994 11.7707 19.9171 11.5443 19.7534 11.3715L16.3849 7.81591C16.0561 7.46877 15.5229 7.46877 15.194 7.81591C14.8652 8.16304 14.8652 8.72585 15.194 9.07298L17.1249 11.1111H9.05263C8.58755 11.1111 8.21053 11.5091 8.21053 12C8.21053 12.4909 8.58755 12.8889 9.05263 12.8889H17.1249L15.194 14.927C14.8652 15.2741 14.8652 15.837 15.194 16.1841C15.5229 16.5312 16.0561 16.5312 16.3849 16.1841L19.7528 12.6292L19.7588 12.6227Z"
    stroke="#323232"
    strokeMiterlimit="10"
    strokeLinecap="round"
    strokeLinejoin="round"
  />
</svg>
